# xmcd
#
# Track frame offsets:
#	150
#	15081
#	26824
#	38995
#	57211
#	74776
#	89632
#	103048
#	119974
#	138577
#	152019
#	165481
#	177603
#	191502
#	203948
#
# Disc length: 2908 seconds
#
# Revision: 1
# Processed by: cddbd v1.5.2PL0 Copyright (c) Steve Scherf et al.
# Submitted via: EasyCDDAExtractor 16.0.6.1
#
DISCID=de0b5a0f
DTITLE=fernando e sorocaba - acústico na ópera de arame
DYEAR=2012
DGENRE=Country
TTITLE0=01 a verdade
TTITLE1=02 eu acho é pouco
TTITLE2=03 falo ou não falo
TTITLE3=04 férias em salvador
TTITLE4=05 de janeiro de 2003
TTITLE5=06 apelou
TTITLE6=07 pega eu
TTITLE7=08 nada faz sentido
TTITLE8=09 everest (part.luan santana)
TTITLE9=10 to passando mal (tatatata)
TTITLE10=11 perdeu (part thaeme e thiago)
TTITLE11=12 é tenso
TTITLE12=13 ta tirando onda(part inimigos da hp)
TTITLE13=14 o cara
TTITLE14=15 teus secredos
EXTD=
EXTT0=
EXTT1=
EXTT2=
EXTT3=
EXTT4=
EXTT5=
EXTT6=
EXTT7=
EXTT8=
EXTT9=
EXTT10=
EXTT11=
EXTT12=
EXTT13=
EXTT14=
PLAYORDER=
